<?xml version="1.0" standalone="no"?>
<!DOCTYPE svg PUBLIC "-//W3C//DTD SVG 20010904//EN"
 "http://www.w3.org/TR/2001/REC-SVG-20010904/DTD/svg10.dtd">
<svg version="1.0" xmlns="http://www.w3.org/2000/svg"
 width="215.000000pt" height="215.000000pt" viewBox="0 0 215.000000 215.000000"
 preserveAspectRatio="xMidYMid meet">
<metadata>
Created by potrace 1.11, written by Peter Selinger 2001-2013
</metadata>
<g transform="translate(0.000000,215.000000) scale(0.100000,-0.100000)"
fill="#000000" stroke="none">
<path d="M833 2126 c11 -15 8 -28 -5 -20 -7 4 -8 3 -4 -5 4 -6 12 -8 18 -5 7
4 8 2 4 -4 -5 -9 -13 -9 -27 -1 -12 6 -23 8 -27 5 -3 -3 -13 1 -22 9 -15 14
-18 14 -23 1 -4 -10 -1 -13 9 -9 7 3 14 0 14 -5 0 -6 -12 -9 -26 -6 -15 3 -23
1 -20 -5 3 -5 -2 -8 -11 -6 -10 2 -21 4 -25 4 -4 1 -5 9 -1 19 5 15 4 14 -9
-2 -8 -10 -20 -16 -26 -12 -8 5 -10 2 -6 -9 5 -13 9 -13 22 -3 13 12 14 11 2
-9 -13 -20 -15 -20 -27 -5 -12 16 -13 15 -19 -5 -3 -13 -11 -23 -16 -23 -5 0
-7 -4 -4 -9 3 -5 -4 -11 -17 -15 -39 -10 -50 -7 -42 11 5 15 3 15 -13 -2 -11
-11 -17 -24 -14 -29 2 -4 9 -2 14 5 8 11 9 11 5 -1 -2 -10 -13 -14 -33 -12
-16 2 -26 1 -22 -3 4 -4 2 -13 -5 -20 -9 -10 -14 -9 -23 3 -7 10 -16 12 -25 6
-8 -5 -17 -9 -21 -9 -10 0 -12 -15 -2 -23 4 -4 4 -1 0 5 -5 9 -2 11 8 7 9 -3
16 -1 16 5 0 6 4 11 8 11 5 0 9 -7 9 -15 0 -8 -3 -13 -5 -10 -3 3 -16 -2 -29
-10 -21 -14 -24 -14 -30 1 -5 15 -8 14 -15 -5 -5 -14 -14 -21 -22 -18 -9 4
-13 -2 -12 -15 0 -12 -5 -23 -11 -25 -7 -3 -13 0 -13 7 0 6 4 8 10 5 6 -4 7 1
3 11 -5 14 -8 13 -19 -7 -7 -13 -16 -23 -21 -22 -4 1 -10 -1 -13 -4 -3 -4 1
-3 7 1 7 4 13 2 13 -4 0 -6 4 -9 9 -6 5 4 7 -4 3 -16 -5 -21 -6 -21 -13 -2 -4
10 -8 15 -8 10 -1 -5 -9 -2 -18 5 -12 10 -14 10 -9 1 4 -7 1 -15 -8 -18 -9 -3
-13 -10 -10 -16 3 -5 12 -1 19 9 13 17 14 17 12 -4 -1 -17 -6 -20 -32 -17 -16
2 -25 0 -20 -4 12 -8 13 -47 2 -58 -4 -5 -5 -1 -2 7 4 10 0 16 -8 16 -16 0
-19 -29 -3 -40 7 -6 5 -7 -6 -4 -23 8 -31 -4 -11 -18 15 -11 14 -12 -8 -10
-18 2 -25 -2 -26 -16 -1 -10 3 -19 8 -19 5 0 1 -9 -10 -21 -11 -12 -24 -18
-30 -15 -7 4 -8 1 -5 -8 3 -9 9 -14 13 -11 4 2 8 -2 8 -9 0 -7 -6 -13 -13 -13
-7 0 -11 4 -8 8 2 4 -1 11 -7 15 -8 4 -9 3 -5 -4 4 -7 1 -12 -6 -12 -7 -1 -3
-6 10 -13 22 -13 22 -14 4 -30 -10 -9 -23 -14 -28 -10 -5 4 -4 1 3 -6 9 -11
15 -11 26 -3 11 9 14 8 14 -3 0 -8 -3 -13 -6 -11 -11 7 -51 -13 -51 -25 0 -8
4 -8 15 1 9 7 18 10 22 6 3 -3 1 -6 -6 -6 -7 0 -9 -5 -6 -10 4 -6 3 -10 -2 -9
-21 4 -32 -3 -48 -27 -9 -15 -12 -23 -6 -20 6 4 11 2 11 -5 0 -9 3 -9 14 0 11
9 16 9 22 -1 4 -7 4 -10 -1 -6 -4 4 -20 -1 -35 -12 -15 -11 -30 -17 -34 -13
-3 3 -6 1 -6 -5 0 -15 6 -15 33 0 19 10 20 9 9 -4 -7 -9 -10 -23 -6 -32 4 -9
1 -16 -6 -16 -7 0 -10 -7 -6 -16 5 -14 4 -15 -8 -5 -11 9 -16 9 -22 0 -4 -7
-3 -9 4 -5 7 4 10 -1 9 -14 -1 -11 -4 -20 -7 -20 -4 0 -7 -7 -7 -16 0 -15 2
-14 13 1 8 10 11 21 9 25 -2 4 2 7 10 7 18 0 20 -14 3 -20 -10 -3 -9 -8 2 -23
14 -18 14 -18 -4 -4 -18 14 -19 13 -13 -3 4 -10 3 -16 -2 -13 -5 3 -11 -1 -15
-9 -3 -8 0 -17 6 -21 6 -4 8 -3 5 3 -3 5 0 10 7 10 8 0 13 -7 11 -16 -1 -9 -9
-15 -16 -14 -11 2 -14 -8 -14 -36 0 -22 4 -43 9 -48 5 -5 6 -2 1 7 -5 8 -4 12
0 7 14 -12 15 -39 1 -34 -14 6 -16 -87 -2 -100 5 -5 6 -2 1 7 -5 8 -4 12 0 7
14 -12 15 -39 2 -34 -9 3 -12 -12 -12 -53 0 -32 3 -56 8 -53 4 2 4 9 1 15 -4
7 -2 8 4 4 7 -4 12 -13 12 -21 0 -7 6 -16 13 -19 6 -3 2 -3 -10 0 -20 4 -24
-7 -13 -36 1 -3 2 -9 1 -13 -1 -5 3 -6 9 -2 8 5 7 12 -2 22 -12 15 -11 15 10
2 12 -8 18 -15 12 -17 -18 -6 -11 -22 8 -16 9 3 6 -2 -8 -10 -14 -8 -19 -15
-11 -16 7 0 11 -6 7 -15 -5 -14 4 -19 30 -16 13 1 28 -28 19 -37 -3 -3 -5 0
-5 6 0 7 -5 12 -11 12 -8 0 -9 -4 0 -13 6 -8 7 -18 3 -22 -4 -5 7 -1 23 10 21
13 26 14 18 3 -7 -8 -9 -18 -5 -22 4 -4 7 -13 7 -19 1 -7 6 -11 11 -10 12 2
12 -26 -1 -46 -5 -10 -4 -12 3 -7 16 10 15 -7 -1 -23 -6 -8 -7 -11 -1 -8 6 4
17 -5 24 -18 7 -13 16 -22 20 -20 4 3 10 -3 12 -13 3 -11 0 -19 -8 -19 -8 0
-14 5 -14 10 0 6 -3 8 -6 4 -3 -3 1 -16 10 -29 9 -12 16 -17 16 -10 0 6 8 12
18 12 12 0 14 -2 4 -8 -19 -13 23 -63 46 -55 16 6 16 6 0 -11 -17 -16 -17 -18
0 -41 9 -12 20 -21 25 -18 4 2 10 -3 14 -13 5 -14 8 -14 23 6 l17 22 -3 -23
c-1 -13 -3 -28 -3 -32 -1 -5 -5 -6 -9 -3 -5 3 -9 -2 -9 -10 0 -10 4 -11 11 -4
14 14 29 13 20 -3 -4 -6 -4 -9 1 -5 4 4 14 3 21 -3 8 -7 14 -6 20 2 5 8 3 9
-6 4 -9 -6 -11 -4 -5 5 5 8 4 11 -3 6 -6 -3 -14 -1 -17 5 -12 19 4 23 24 5 20
-18 18 -61 -3 -49 -6 3 -7 2 -3 -2 13 -15 35 -14 41 2 3 8 1 11 -4 8 -6 -4 -7
1 -3 11 6 15 7 15 15 -1 5 -9 7 -23 4 -30 -3 -8 0 -17 6 -21 6 -4 8 -3 4 4 -3
5 0 12 6 15 18 5 48 -3 48 -14 0 -11 -23 -7 -32 6 -4 5 -6 0 -6 -11 2 -17 8
-21 30 -19 15 1 28 -1 28 -4 0 -4 16 -7 35 -6 21 1 32 -2 28 -8 -4 -7 1 -8 12
-3 15 5 16 4 5 -9 -10 -12 -11 -18 -1 -28 10 -9 11 -8 5 8 -7 18 -6 19 11 5
11 -9 16 -10 11 -2 -4 6 -2 12 3 12 6 0 11 -4 11 -10 0 -5 7 -6 17 -3 11 4 14
3 9 -5 -6 -11 5 -17 27 -13 4 0 7 -3 7 -7 0 -4 11 -8 25 -8 38 0 13 14 -32 18
-7 1 -13 5 -13 9 0 4 9 7 20 6 11 -1 20 -6 20 -11 0 -5 3 -6 6 -3 4 3 15 2 25
-4 14 -7 19 -6 19 3 0 9 3 10 8 2 4 -6 15 -10 25 -8 9 1 15 -2 11 -7 -3 -5 -9
-7 -13 -5 -4 3 -8 -1 -8 -9 0 -11 4 -12 13 -4 16 13 54 3 54 -14 0 -7 4 -6 9
3 12 18 5 31 -13 24 -19 -7 -27 9 -14 26 8 12 9 12 4 -3 -3 -9 -1 -17 4 -17 5
0 14 8 20 17 10 17 10 16 8 -2 -2 -11 3 -20 10 -21 6 -1 17 -2 22 -3 6 0 10
-9 11 -18 0 -14 2 -13 9 4 10 24 40 27 62 5 9 -9 15 -9 27 1 12 9 13 9 7 0 -4
-8 -2 -13 4 -13 6 0 8 -5 4 -12 -4 -6 -3 -8 4 -5 5 4 8 17 6 30 -4 17 -1 15
11 -8 8 -16 13 -22 10 -12 -3 10 -1 15 5 12 6 -3 10 -1 10 6 0 7 3 9 7 6 3 -4
13 -1 22 6 14 11 15 10 1 -7 -14 -18 -13 -19 8 -14 15 4 20 2 15 -5 -3 -7 -2
-9 2 -4 5 4 18 -1 29 -10 20 -17 20 -17 6 1 -14 18 -13 19 15 13 41 -8 64 6
46 27 -9 11 -10 16 -2 16 6 0 11 -5 11 -11 0 -6 5 -7 13 -2 6 4 21 8 32 8 11
1 19 7 17 14 -1 7 2 10 8 6 7 -5 8 -11 1 -19 -7 -8 -6 -17 1 -26 9 -13 9 -13
6 0 -3 8 4 24 15 34 14 13 19 15 15 4 -4 -8 -1 -15 8 -15 7 0 11 4 9 8 -3 4 2
10 11 13 12 5 14 1 10 -17 -3 -12 -3 -17 0 -10 3 7 12 9 20 6 8 -3 14 0 14 7
0 6 -4 9 -8 6 -5 -3 -9 2 -9 10 0 9 4 11 10 5 5 -5 16 -7 23 -4 9 3 13 0 11
-8 -2 -8 -2 -11 0 -6 3 4 9 4 15 1 6 -4 6 1 -1 14 -10 19 -8 20 19 16 18 -3
30 -1 30 6 0 6 -6 8 -12 4 -8 -4 -10 -3 -5 2 5 5 13 10 18 10 5 1 14 2 20 3 5
0 7 6 3 13 -4 7 -3 8 4 4 6 -4 9 -13 6 -20 -3 -8 -1 -17 5 -21 7 -4 8 0 4 11
-5 13 -3 15 8 9 8 -4 11 -5 7 0 -4 4 -2 15 5 23 10 13 9 15 -8 8 -15 -5 -17
-4 -8 5 15 15 34 3 26 -18 -5 -11 -3 -14 6 -9 7 5 11 16 8 26 -3 13 0 17 9 13
8 -3 11 -10 7 -16 -3 -6 -1 -7 5 -3 7 4 12 15 12 24 0 15 2 15 10 2 9 -14 14
-7 11 15 -1 6 4 3 11 -5 11 -13 17 -11 43 14 27 26 28 28 5 16 -14 -7 -28 -18
-32 -24 -11 -16 -10 6 1 22 4 8 11 13 15 13 3 -1 20 6 36 14 16 8 32 15 35 15
3 0 5 2 5 5 0 3 0 8 0 11 0 4 -11 -1 -25 -10 -14 -9 -25 -12 -25 -6 0 5 5 10
11 10 8 0 7 6 -2 18 -11 14 -11 15 1 5 16 -15 34 -17 25 -4 -3 5 -1 12 5 16 6
4 7 12 3 18 -4 7 1 5 11 -3 17 -13 17 -14 -1 -21 -14 -6 -15 -8 -2 -8 25 -1
30 11 14 35 -14 22 -14 23 2 17 16 -6 17 -5 3 13 -14 18 -14 18 3 5 15 -12 20
-12 30 -1 9 9 9 11 0 6 -6 -3 -14 -2 -17 3 -4 6 7 8 26 6 24 -3 29 -2 18 5
-14 9 -7 14 13 11 5 -1 6 3 2 9 -3 6 -12 7 -18 3 -7 -4 -21 -9 -32 -10 -16 -2
-17 -1 -5 6 8 5 18 7 24 4 5 -4 7 1 3 11 -4 10 -3 15 4 11 14 -9 61 23 53 36
-4 7 4 6 17 -1 24 -13 24 -13 6 8 -12 13 -15 22 -7 27 6 3 9 1 8 -6 -5 -21 23
-22 29 0 3 12 9 22 14 22 5 1 13 2 18 3 5 0 13 5 18 10 4 5 4 7 -2 4 -5 -3
-17 1 -24 10 -13 14 -12 15 7 10 33 -9 48 17 20 36 -12 9 -17 16 -10 16 6 0
12 5 12 11 0 5 -6 7 -12 4 -7 -4 -2 3 11 14 12 12 26 19 30 17 3 -2 7 9 7 25
1 16 -2 29 -6 29 -4 0 -7 -10 -6 -22 1 -16 -5 -23 -19 -25 -15 -2 -16 -1 -4 5
9 4 15 18 14 34 -1 16 2 25 8 21 6 -4 8 0 4 10 -3 9 -1 19 5 23 6 4 8 3 5 -3
-4 -6 0 -18 7 -28 12 -17 13 -17 11 1 0 10 -6 28 -12 38 -11 21 -6 56 9 56 5
0 4 -10 -2 -22 -11 -22 -10 -22 4 -4 9 10 13 22 11 27 -3 4 -1 10 5 14 15 9
12 25 -5 25 -7 0 -19 -8 -24 -18 -6 -9 -11 -12 -11 -5 0 21 42 44 57 31 9 -7
13 -7 13 1 0 11 -15 15 -35 11 -5 -1 -7 2 -3 6 4 4 0 13 -10 21 -15 13 -15 13
5 4 38 -19 49 -12 16 9 -18 11 -33 23 -33 26 0 4 6 1 14 -5 8 -7 24 -14 36
-16 22 -4 22 -4 4 16 -11 12 -17 23 -16 26 2 3 1 7 -2 10 -3 3 -3 -4 -1 -16 2
-12 0 -19 -5 -16 -9 6 -8 24 3 43 8 12 2 16 -17 13 -5 -1 -4 5 4 13 15 19 24
21 14 4 -4 -7 -3 -8 4 -4 7 4 10 -1 7 -14 -2 -11 0 -20 6 -20 10 0 8 28 -4 47
-4 6 -1 14 5 16 10 4 10 6 1 6 -7 1 -13 8 -13 17 0 9 -5 12 -11 8 -7 -4 -10
-1 -7 7 3 8 10 14 16 14 5 0 14 4 19 8 4 5 1 7 -7 5 -8 -2 -14 3 -12 10 1 8
-2 11 -7 8 -14 -9 -31 18 -25 41 4 15 11 20 22 16 10 -4 15 -4 12 -2 -39 33
-53 42 -42 27 9 -11 10 -18 2 -23 -6 -4 -9 -1 -8 7 2 7 -4 12 -12 10 -10 -3
-7 4 8 21 l23 24 -23 17 c-13 9 -18 14 -11 11 15 -7 11 19 -7 40 -11 13 -11
18 -1 25 8 5 9 9 3 11 -6 2 -13 17 -16 33 -3 16 -10 34 -15 39 -5 5 -7 15 -5
21 3 7 -6 22 -18 33 -22 21 -26 23 -47 23 -10 0 -8 34 3 60 4 9 -2 20 -15 28
-12 8 -18 9 -14 3 3 -6 1 -11 -4 -11 -6 0 -12 5 -12 10 -1 6 -2 16 -3 23 -1 6
-7 11 -13 10 -6 -1 -10 6 -10 15 0 53 -4 73 -13 67 -6 -4 -7 -12 -3 -18 4 -7
-2 -5 -13 3 -29 22 -30 24 -11 17 13 -5 17 -3 14 5 -2 7 -11 12 -18 10 -8 -2
-6 5 6 19 11 12 14 19 8 15 -8 -4 -13 -1 -13 8 0 8 -4 18 -10 21 -7 4 -7 -3 0
-19 12 -33 -1 -34 -16 -2 -7 16 -8 28 -2 34 6 6 5 13 -3 17 -8 5 -10 4 -5 -3
4 -7 3 -12 -2 -12 -5 0 -15 11 -22 25 -12 22 -14 23 -25 9 -10 -14 -15 -14
-33 -3 -13 8 -18 17 -12 24 5 6 5 17 -2 25 -8 12 -9 12 -4 -2 3 -12 0 -18 -10
-18 -9 0 -12 5 -8 13 5 7 0 6 -11 -3 -17 -14 -18 -13 -12 3 4 11 1 17 -9 17
-8 0 -13 -4 -9 -9 10 -18 -13 -21 -26 -4 -8 9 -9 14 -3 10 12 -7 29 21 19 31
-3 3 -5 0 -5 -6 0 -7 -5 -12 -11 -12 -5 0 -8 4 -5 8 2 4 1 14 -5 22 -6 10 -9
11 -9 3 0 -7 -5 -13 -11 -13 -5 0 -8 4 -5 9 3 5 -2 8 -12 7 -10 0 -17 6 -16
15 1 12 -6 15 -27 13 -16 -2 -29 1 -29 7 0 6 -4 8 -9 4 -5 -3 -12 -1 -16 5 -4
6 -10 8 -15 5 -5 -3 -12 0 -16 6 -4 8 -3 9 4 5 8 -5 12 0 12 12 0 11 -7 23
-16 26 -14 5 -15 4 -4 -9 11 -13 10 -14 -5 -9 -14 6 -16 4 -10 -6 5 -8 4 -11
-3 -6 -6 3 -9 15 -7 25 2 13 -2 18 -13 16 -9 -1 -23 2 -29 8 -7 5 -13 6 -13 1
0 -5 -5 -2 -11 6 -8 12 -9 11 -5 -5 5 -17 1 -21 -17 -21 -13 0 -24 6 -24 13 0
17 14 17 20 1 4 -8 6 -9 6 -2 1 6 -5 17 -13 23 -11 9 -16 6 -24 -19 -12 -32
-23 -42 -16 -12 3 10 -4 22 -18 31 l-23 14 20 -23 20 -23 -21 11 c-12 6 -25 8
-29 4 -5 -4 -5 -1 -1 6 7 12 -15 11 -62 -4 -7 -2 -10 0 -7 6 3 5 -9 16 -27 25
-31 14 -32 14 -10 -1 12 -9 22 -24 22 -33 -1 -14 -2 -14 -11 2 -5 9 -15 17
-21 17 -6 0 -5 -7 3 -17 13 -16 12 -17 -3 -4 -10 7 -16 17 -13 21 3 4 -3 14
-12 21 -14 12 -16 12 -9 0 7 -10 4 -12 -12 -7 -14 5 -24 1 -30 -9 -8 -15 -13
-13 -43 12 -19 15 -28 20 -20 10 13 -16 12 -18 -13 -13 -15 3 -24 1 -21 -5 4
-5 -1 -9 -10 -9 -10 0 -13 5 -9 13 4 6 4 9 -1 5 -4 -4 -15 1 -24 10 -9 10 -13
13 -8 8z m107 -38 c0 -4 -8 -8 -18 -8 -10 0 -24 -6 -31 -12 -11 -11 -11 -9 -1
7 12 20 50 29 50 13z m96 -10 c0 -16 -1 -16 -20 0 -18 16 -19 16 -13 -1 4 -11
3 -16 -3 -12 -19 12 -10 33 13 31 14 0 23 -7 23 -18z m-166 -8 c0 -5 -2 -10
-4 -10 -3 0 -8 5 -11 10 -3 6 -1 10 4 10 6 0 11 -4 11 -10z m305 -18 c-3 -3
-11 0 -18 7 -9 10 -8 11 6 5 10 -3 15 -9 12 -12z m168 3 c4 0 7 -3 7 -7 0 -29
-2 -31 -11 -15 -6 9 -14 15 -20 12 -5 -4 -9 1 -9 10 0 11 4 13 13 8 6 -4 15
-8 20 -8z m156 -114 c0 -11 -3 -9 -9 6 -6 16 -15 21 -27 17 -15 -5 -15 -4 -3
4 18 13 40 -2 39 -27z m53 -25 c-4 -16 -6 -17 -14 -2 -5 9 -13 14 -19 11 -5
-4 -9 -2 -9 3 0 6 11 9 23 8 18 -1 23 -6 19 -20z m187 -101 c11 -19 16 -35 11
-35 -5 0 -11 9 -15 19 -3 11 -11 19 -18 17 -7 -1 -9 -1 -5 1 4 2 4 11 1 19
-10 26 5 14 26 -21z m-1554 -145 c3 -5 1 -10 -4 -10 -6 0 -11 5 -11 10 0 6 2
10 4 10 3 0 8 -4 11 -10z m-20 -70 c3 -5 1 -10 -4 -10 -6 0 -11 5 -11 10 0 6
2 10 4 10 3 0 8 -4 11 -10z m1729 -9 c3 -5 -2 -15 -12 -22 -15 -12 -16 -12 -5
2 7 9 10 19 6 22 -3 4 -4 7 0 7 3 0 8 -4 11 -9z m56 -106 c7 -9 10 -18 7 -22
-4 -3 -2 -12 4 -20 6 -7 8 -13 3 -13 -5 0 -2 -5 6 -10 13 -8 12 -10 -3 -10
-12 0 -17 6 -15 18 2 10 -2 16 -10 14 -8 -1 -11 2 -8 7 4 5 1 11 -6 14 -7 2
-5 3 5 2 9 -2 17 -1 17 2 0 3 -8 12 -17 19 -10 7 -13 14 -7 14 6 0 17 -7 24
-15z m-1889 -58 c-10 -9 -11 -8 -5 6 3 10 9 15 12 12 3 -3 0 -11 -7 -18z
m1922 -47 c3 -11 2 -20 -3 -20 -4 0 -10 9 -13 20 -3 11 -2 20 3 20 4 0 10 -9
13 -20z m22 -68 c-6 -8 -32 11 -32 23 0 12 4 11 17 -3 10 -9 16 -18 15 -20z
m20 -44 c5 4 5 1 1 -6 -6 -10 -11 -10 -22 -1 -8 6 -14 14 -14 16 0 3 6 0 13
-6 8 -6 18 -7 22 -3z m-1998 -125 c-4 -3 -2 -12 5 -20 6 -7 8 -16 4 -20 -3 -3
-6 -1 -6 6 0 7 -4 10 -9 7 -5 -4 -8 2 -6 11 5 24 4 23 12 23 3 0 3 -3 0 -7z
m2027 -11 c3 -5 -1 -9 -9 -9 -8 0 -15 4 -15 9 0 4 4 8 9 8 6 0 12 -4 15 -8z
m11 -62 c3 -5 1 -10 -4 -10 -6 0 -11 5 -11 10 0 6 2 10 4 10 3 0 8 -4 11 -10z
m-2038 -47 c-4 -3 -2 -12 5 -20 6 -7 8 -16 4 -20 -3 -3 -6 -1 -6 6 0 7 -4 10
-9 7 -5 -4 -8 2 -6 11 5 24 4 23 12 23 3 0 3 -3 0 -7z m4 -126 c-7 -7 -7 -16
1 -26 10 -13 10 -14 -2 -4 -19 17 -21 40 -4 40 10 0 11 -4 5 -10z m43 -165 c2
-4 0 -14 -6 -22 -8 -12 -9 -12 -5 2 3 9 1 19 -6 22 -9 3 -9 5 0 5 6 1 14 -3
17 -7z m1919 -145 c-5 -8 -8 -7 -11 1 -2 7 -9 9 -14 6 -7 -4 -8 -2 -4 4 4 6
13 9 21 6 8 -4 12 -11 8 -17z m-1816 -53 c-3 -3 -12 -4 -19 -1 -8 3 -5 6 6 6
11 1 17 -2 13 -5z m13 -24 c0 -5 -7 -7 -15 -4 -8 4 -15 8 -15 10 0 2 7 4 15 4
8 0 15 -4 15 -10z m55 -100 c3 -5 1 -10 -4 -10 -6 0 -11 5 -11 10 0 6 2 10 4
10 3 0 8 -4 11 -10z m20 -60 c-3 -5 5 -15 19 -22 14 -6 26 -15 26 -20 0 -5
-14 0 -30 12 -25 18 -33 40 -14 40 3 0 2 -4 -1 -10z m180 -100 c3 -5 1 -10 -4
-10 -6 0 -11 5 -11 10 0 6 2 10 4 10 3 0 8 -4 11 -10z m56 -73 c-10 -9 -11 -8
-5 6 3 10 9 15 12 12 3 -3 0 -11 -7 -18z m669 -102 c0 -2 -6 -5 -13 -8 -8 -3
-14 1 -14 8 0 7 6 11 14 8 7 -3 13 -6 13 -8z m37 -11 c-9 -9 -28 6 -21 18 4 6
10 6 17 -1 6 -6 8 -13 4 -17z"/>
<path d="M704 2098 c0 -16 2 -16 18 -1 10 9 18 17 18 17 0 1 -8 2 -18 2 -10 0
-18 -8 -18 -18z"/>
<path d="M785 2110 c-3 -6 1 -7 9 -4 18 7 21 14 7 14 -6 0 -13 -4 -16 -10z"/>
<path d="M1114 2109 c3 -17 33 -20 33 -3 0 10 -4 11 -13 3 -8 -7 -14 -6 -17 1
-3 6 -5 6 -3 -1z"/>
<path d="M1216 2112 c-3 -5 1 -9 9 -9 8 0 12 4 9 9 -3 4 -7 8 -9 8 -2 0 -6 -4
-9 -8z"/>
<path d="M590 2050 c0 -5 5 -10 10 -10 6 0 10 5 10 10 0 6 -4 10 -10 10 -5 0
-10 -4 -10 -10z"/>
<path d="M567 2026 c-4 -10 -1 -13 8 -9 8 3 12 9 9 14 -7 12 -11 11 -17 -5z"/>
<path d="M1436 2026 c6 -15 4 -17 -6 -11 -9 6 -11 4 -5 -4 5 -9 10 -10 18 -2
8 8 7 14 -2 24 -10 10 -11 8 -5 -7z"/>
<path d="M1468 2003 c7 -3 16 -2 19 1 4 3 -2 6 -13 5 -11 0 -14 -3 -6 -6z"/>
<path d="M1675 1860 c3 -5 11 -10 16 -10 6 0 7 5 4 10 -3 6 -11 10 -16 10 -6
0 -7 -4 -4 -10z"/>
<path d="M1844 1683 c1 -11 7 -28 14 -35 6 -8 10 -17 8 -19 -2 -2 7 -5 21 -6
24 -1 24 0 -7 18 -28 17 -30 22 -18 36 7 10 8 14 1 10 -6 -4 -14 -1 -17 5 -2
7 -4 3 -2 -9z"/>
<path d="M133 1639 c-2 -23 3 -25 10 -4 4 8 3 16 -1 19 -4 3 -9 -4 -9 -15z"/>
<path d="M1911 1566 c-23 -27 12 -58 36 -31 5 4 2 5 -6 0 -11 -6 -13 -4 -7 10
5 15 4 16 -9 5 -18 -15 -20 1 -3 18 7 7 9 12 6 12 -3 0 -11 -6 -17 -14z"/>
<path d="M86 1548 c3 -4 9 -8 15 -8 5 0 9 4 9 8 0 5 -7 9 -15 9 -8 0 -12 -4
-9 -9z"/>
<path d="M15 1339 c-10 -15 3 -25 16 -12 7 7 7 13 1 17 -6 3 -14 1 -17 -5z"/>
<path d="M2040 1170 c0 -5 5 -10 11 -10 5 0 7 5 4 10 -3 6 -8 10 -11 10 -2 0
-4 -4 -4 -10z"/>
<path d="M97 633 c-3 -4 6 -22 20 -38 21 -25 23 -26 12 -5 -7 14 -13 28 -14
32 0 12 -13 20 -18 11z"/>
<path d="M1995 630 c-3 -5 -1 -10 4 -10 6 0 11 5 11 10 0 6 -2 10 -4 10 -3 0
-8 -4 -11 -10z"/>
<path d="M1877 462 c-14 -15 -15 -19 -2 -19 8 0 12 4 9 8 -2 4 2 9 8 12 7 2
10 7 7 11 -3 3 -13 -2 -22 -12z"/>
<path d="M190 404 c0 -2 8 -17 19 -34 12 -21 20 -27 24 -18 2 8 -6 23 -19 35
-13 12 -24 20 -24 17z"/>
<path d="M230 326 c0 -2 8 -10 18 -17 15 -13 16 -12 3 4 -13 16 -21 21 -21 13z"/>
<path d="M530 140 c0 -5 5 -12 10 -15 6 -3 10 0 10 7 0 10 3 9 11 -2 8 -12 10
-12 7 -1 -4 15 -38 25 -38 11z"/>
<path d="M1244 78 c-4 -5 -3 -12 0 -15 3 -4 6 0 6 8 0 11 2 12 9 1 7 -11 9
-11 14 0 6 16 -20 21 -29 6z"/>
<path d="M933 65 c0 -8 4 -15 9 -15 4 0 8 7 8 15 0 8 -4 15 -8 15 -5 0 -9 -7
-9 -15z"/>
<path d="M964 62 c0 -11 9 -18 24 -19 13 0 22 0 20 1 -2 0 -12 9 -23 18 -20
16 -21 16 -21 0z"/>
<path d="M1070 50 c0 -5 5 -10 10 -10 6 0 10 5 10 10 0 6 -4 10 -10 10 -5 0
-10 -4 -10 -10z"/>
</g>
</svg>
